<?xml version="1.0" encoding="utf-8"?>
<!-- Generator: Adobe Illustrator 23.0.4, SVG Export Plug-In . SVG Version: 6.00 Build 0)  -->
<svg version="1.1" id="Layer_1" xmlns="http://www.w3.org/2000/svg" xmlns:xlink="http://www.w3.org/1999/xlink" x="0px" y="0px"
	 viewBox="0 0 100 100" style="enable-background:new 0 0 100 100;" xml:space="preserve">
<style type="text/css">
	.st0{fill:#FFD700;stroke:#000000;stroke-miterlimit:10;}
</style>
<g>
	<path class="st0" d="M83,39.8l-8.9,6.1c-5.2,3.6-12.4,1.6-15-4.1l-6.8-14.5c-0.6-1.2-2.3-1.2-2.8,0l-6.6,14.4
		c-2.7,5.9-10.1,7.8-15.3,4L19,39.4c-1.2-0.9-2.9,0.3-2.4,1.8l9,24.5c0.1,0.3,0.4,0.4,0.6,0.4h49.7c0.3,0,0.5-0.2,0.6-0.4l8.8-24
		C85.9,40.2,84.2,39,83,39.8z"/>
	<path class="st0" d="M75.6,70H26.3c-0.4,0-0.7,0.3-0.7,0.7v3.7c0,0.4,0.3,0.7,0.7,0.7h49.3c0.4,0,0.7-0.3,0.7-0.7v-3.7
		C76.2,70.3,75.9,70,75.6,70z"/>
</g>
</svg>
