<?xml version="1.0" encoding="utf-8"?>
<!-- Generator: Adobe Illustrator 23.0.3, SVG Export Plug-In . SVG Version: 6.00 Build 0)  -->
<svg version="1.1"
	 id="Layer_1" xmlns:cc="http://creativecommons.org/ns#" xmlns:dc="http://purl.org/dc/elements/1.1/" xmlns:inkscape="http://www.inkscape.org/namespaces/inkscape" xmlns:rdf="http://www.w3.org/1999/02/22-rdf-syntax-ns#" xmlns:sodipodi="http://sodipodi.sourceforge.net/DTD/sodipodi-0.dtd" xmlns:svg="http://www.w3.org/2000/svg"
	 xmlns="http://www.w3.org/2000/svg" xmlns:xlink="http://www.w3.org/1999/xlink" x="0px" y="0px" viewBox="0 0 100 100"
	 style="enable-background:new 0 0 100 100;" xml:space="preserve">
<style type="text/css">
	.st0{fill:#28A02E;}
</style>
<g transform="translate(0,-952.36218)">
	<path class="st0" d="M37,960.2l-2.9,16.2c-5.7,0.4-10.1,5.2-10.1,10.9v30c0,5.8,4.5,10.5,10.2,11l2.8,16.2c0.1,0.5,0.5,0.8,1,0.8
		h24c0.5,0,0.9-0.4,1-0.8l2.8-16.2c5.7-0.4,10.2-5.2,10.2-11v-30c0-5.8-4.5-10.5-10.1-10.9L63,960.2c-0.1-0.5-0.5-0.8-1-0.8H38
		C37.4,959.4,37.1,959.8,37,960.2z M38.8,961.4h22.3l2.6,15H36.2L38.8,961.4z M35,978.4h30c5,0,9,4,9,9v30c0,5-4,9-9,9H35
		c-5,0-9-4-9-9v-30C26,982.4,30,978.4,35,978.4z M44,989.4c-4.8,0-9,3.6-9,9c0,4,2,11.5,14.6,16.9c0.3,0.1,0.6,0.1,0.8,0
		c12.6-5.4,14.6-13,14.6-16.9c0-5.4-4.2-9-9-9c-2.8,0-4.8,1.5-6,3.2C48.8,990.8,46.8,989.4,44,989.4z M44,991.4
		c2.7,0,4.2,1.6,5.1,3.4c0.3,0.7,1.5,0.7,1.8,0c0.9-1.8,2.3-3.4,5.1-3.4c3.9,0,7,2.6,7,7c0,3.3-1.3,9.8-13,14.9
		c-11.7-5.1-13-11.6-13-14.9C37,994,40.1,991.4,44,991.4z M36.2,1028.4h27.6l-2.6,15H38.8L36.2,1028.4z"/>
</g>
</svg>
