<?xml version="1.0" encoding="utf-8"?>
<!-- Generator: Adobe Illustrator 23.0.3, SVG Export Plug-In . SVG Version: 6.00 Build 0)  -->
<svg version="1.1" id="Layer_1" xmlns="http://www.w3.org/2000/svg" xmlns:xlink="http://www.w3.org/1999/xlink" x="0px" y="0px"
	 viewBox="0 0 100 100" style="enable-background:new 0 0 100 100;" xml:space="preserve">
<style type="text/css">
	.st0{fill:#DB1F1F;}
</style>
<g>
	<g transform="translate(50 50) scale(0.69 0.69) rotate(0) translate(-50 -50)">
		<path class="st0" d="M73.9,2.1c-6.4,0-12.5,2.5-17,7.1l-3.7,3.7l-3.7-3.7c-9.4-9.4-24.6-9.4-34-0.1c0,0-0.1,0.1-0.1,0.1
			c-7.4,7.5-9.2,19-4.3,28.3h-9v2.1h10.3c0.9,1.3,1.9,2.6,3,3.7l37,37.6c0.4,0.4,1.1,0.4,1.5,0c0,0,0,0,0,0l37-37.6
			c1.1-1.1,2.2-2.4,3.1-3.7h3.9v-2.1h-2.6c5.1-9.2,3.7-20.2-4.4-28.3C86.4,4.6,80.2,2.1,73.9,2.1z M89.4,41.8L53.1,78.7L16.9,41.8
			c-0.7-0.7-1.3-1.5-1.9-2.2H25c0.4,0,0.8-0.2,0.9-0.6l8.4-16.8l17.8,39.7c0.2,0.4,0.5,0.6,1,0.6c0,0,0,0,0,0c0.4,0,0.8-0.3,0.9-0.7
			l8.1-22.2h29.2C90.8,40.4,90.1,41.1,89.4,41.8z M92.8,37.5H61.5c-0.4,0-0.8,0.3-1,0.7L53,58.7L35.3,19.4c-0.2-0.4-0.5-0.6-0.9-0.6
			c-0.4,0-0.8,0.2-1,0.6l-9.1,18.2H13.5c-5.1-8.7-3.8-19.7,3.3-26.9c8.5-8.6,22.4-8.6,31-0.1c0,0,0.1,0.1,0.1,0.1l4.4,4.4
			c0.4,0.4,1.1,0.4,1.5,0l4.4-4.4c8.5-8.6,22.4-8.6,31-0.1c0,0,0.1,0.1,0.1,0.1v0C97.1,18.3,98.2,28.9,92.8,37.5z"/>
		<path class="st0" d="M3.1,89.6h3.1v3.1c0,0.6,0.5,1,1,1c0,0,0,0,0,0h3.1v3.1c0,0.6,0.5,1,1,1c0,0,0,0,0,0h6.2c0.6,0,1-0.5,1-1
			c0,0,0,0,0,0v-6.2h16.7v6.2c0,0.6,0.5,1,1,1c0,0,0,0,0,0h6.2c0.6,0,1-0.5,1-1c0,0,0,0,0,0v-3.1h3.1c0.6,0,1-0.5,1-1c0,0,0,0,0,0
			v-3.1H51c0.6,0,1-0.5,1-1c0,0,0,0,0,0v-4.2c0-0.6-0.5-1-1-1c0,0,0,0,0,0h-3.1v-3.1c0-0.6-0.5-1-1-1c0,0,0,0,0,0h-3.1V76
			c0-0.6-0.5-1-1-1c0,0,0,0,0,0h-6.2c-0.6,0-1,0.5-1,1c0,0,0,0,0,0v6.2H18.8V76c0-0.6-0.5-1-1-1c0,0,0,0,0,0h-6.2c-0.6,0-1,0.5-1,1
			c0,0,0,0,0,0v3.1H7.3c-0.6,0-1,0.5-1,1c0,0,0,0,0,0v3.1H3.1c-0.6,0-1,0.5-1,1c0,0,0,0,0,0v4.2C2.1,89.1,2.5,89.6,3.1,89.6
			C3.1,89.6,3.1,89.6,3.1,89.6z M50,85.4v2.1h-2.1v-2.1H50z M45.8,81.2v10.4h-2.1V81.2H45.8z M37.5,77.1h4.2v18.8h-4.2V77.1z
			 M35.4,84.4v4.2H18.8v-4.2H35.4z M12.5,77.1h4.2v18.8h-4.2V77.1z M8.3,81.2h2.1v10.4H8.3V81.2z M4.2,85.4h2.1v2.1H4.2V85.4z"/>
		<path class="st0" d="M77.9,85.2C76.7,86.4,76,88,76,89.7v4.8c0,1.9,1.5,3.4,3.4,3.4h15.1c1.9,0,3.4-1.5,3.4-3.4v-4.8
			c0-1.7-0.7-3.3-1.9-4.5c-0.8-0.8-1.3-1.9-1.3-3v-1.2c0-0.9,0.3-1.8,0.9-2.6l1-1.3c0.8-1.1,1.3-2.4,1.3-3.8v-7.1
			c0-1.9-0.9-3.8-2.4-5l-2.8-2.3v-3.7c0-0.6-0.5-1-1-1c0,0,0,0,0,0h-9.4c-0.6,0-1,0.5-1,1c0,0,0,0,0,0v3.7l-2.8,2.3
			c-1.5,1.2-2.4,3-2.4,5v7.1c0,1.4,0.4,2.7,1.3,3.8l1,1.3c0.6,0.7,0.9,1.6,0.9,2.6v1.2C79.2,83.3,78.7,84.4,77.9,85.2z M90.6,56.2
			v2.1h-7.3v-2.1H90.6z M79.7,62.8l2.9-2.3h8.6l2.9,2.3c0.6,0.5,1,1.1,1.3,1.8H78.4C78.7,63.9,79.1,63.2,79.7,62.8z M79,75.8
			c-0.6-0.7-0.9-1.6-0.9-2.6v-6.6h17.7v6.6c0,0.9-0.3,1.8-0.9,2.6l-1,1.3H79.9L79,75.8z M79.4,86.7c1.2-1.2,1.9-2.8,1.9-4.5v-1.2
			c0-0.6-0.1-1.2-0.3-1.8h12c-0.2,0.6-0.3,1.2-0.3,1.8v1.2c0,1.7,0.7,3.3,1.9,4.5c0.8,0.8,1.3,1.9,1.3,3v4.8c0,0.7-0.6,1.3-1.3,1.3
			H79.4c-0.7,0-1.3-0.6-1.3-1.3v-4.8C78.1,88.6,78.6,87.5,79.4,86.7z"/>
		<path class="st0" d="M84.6,72.9l2.9-0.6l-1.9,3.2l1.8,1.1l3.1-5.2c0.2-0.4,0.2-0.8,0-1.1c-0.2-0.3-0.7-0.5-1.1-0.4l-3.1,0.6
			l1.1-2.3l-1.9-0.9l-2.1,4.2c-0.3,0.5,0,1.1,0.5,1.4C84.1,72.9,84.4,72.9,84.6,72.9L84.6,72.9z"/>
	</g>
</g>
</svg>
