<?xml version="1.0" encoding="utf-8"?>
<!-- Generator: Adobe Illustrator 23.0.3, SVG Export Plug-In . SVG Version: 6.00 Build 0)  -->
<svg version="1.1" id="Layer_1" xmlns="http://www.w3.org/2000/svg" xmlns:xlink="http://www.w3.org/1999/xlink" x="0px" y="0px"
	 viewBox="0 0 74.4 97.2" style="enable-background:new 0 0 74.4 97.2;" xml:space="preserve">
<style type="text/css">
	.st0{fill:#444444;}
</style>
<g>
	<g>
		<path d="M-331.9,25h-45.4c-1.2,0-2.2-1-2.2-2.2c0-1.2,1-2.2,2.2-2.2h45.4c1.2,0,2.2,1,2.2,2.2C-329.7,24-330.7,25-331.9,25z"/>
	</g>
	<g>
		<path d="M-354.6,25c-1,0-1.8-0.6-2.1-1.6l-2.7-10.3l-25.2-16.4c-1-0.7-1.3-2-0.6-3c0.7-1,2-1.3,3-0.6l26.6,17.3l3.2,11.9
			c0.3,1.2-0.4,2.4-1.5,2.7C-354.2,25-354.4,25-354.6,25z"/>
	</g>
	<g>
		<path d="M-343.1,91.4h-23.2c-1,0-1.9-0.7-2.1-1.7L-381,30c-0.1-0.6,0-1.3,0.4-1.8c0.4-0.5,1-0.8,1.7-0.8h48.3
			c0.7,0,1.3,0.3,1.7,0.8c0.4,0.5,0.6,1.2,0.4,1.8L-341,89.7C-341.2,90.7-342.1,91.4-343.1,91.4z M-364.6,87.1h19.7l11.6-55.3h-42.9
			L-364.6,87.1z"/>
	</g>
</g>
<g>
	<g>
		<path d="M-208.9,24.1c-5.8,0-10.6-4.7-10.6-10.6c0-5.8,4.7-10.6,10.6-10.6c5.8,0,10.6,4.7,10.6,10.6
			C-198.3,19.4-203.1,24.1-208.9,24.1z M-208.9,7.3c-3.4,0-6.2,2.8-6.2,6.2c0,3.4,2.8,6.2,6.2,6.2c3.4,0,6.2-2.8,6.2-6.2
			C-202.7,10.1-205.5,7.3-208.9,7.3z"/>
	</g>
	<g>
		<path d="M-245.8,75.9l-0.2,0c-0.6,0-14.5-0.9-18.6-1.2c-2.4-0.2-8.8-0.7-8.8-6.1c0-1.3,0.6-5.5,7.6-5.9c3.7-0.2,13-0.9,16.1-1.1
			l7-10.1l3.6,2.5l-8.2,11.8l-1,0.1c-0.1,0-12.7,0.9-17.2,1.1c-0.6,0-3.5,0.3-3.5,1.6c0,0.3,0,1.4,4.7,1.7c4,0.3,17.4,1.1,18.5,1.2
			c1.1,0,2.1-0.6,2.8-1.6l7.4-10.6l3.6,2.5l-7.4,10.6C-240.9,74.6-243.3,75.9-245.8,75.9z"/>
	</g>
	<g>
		<path d="M-227.2,96.7L-227.2,96.7c-0.6,0-1.3-0.1-1.9-0.4c-1.9-0.8-4.6-3.6-0.8-12.7l6-14.8l-14.7-9.8c-6-5.1-4.3-10-1.7-14.6
			l0.1-0.1l9.5-14.1l-4.4-1l-11.9,6.3c-1,0.6-2.9,1.3-4.6,1.3c-2.1,0-3.1-1-3.5-1.6c-1.7-2.5-0.7-5.5,3-8.7l0.1-0.1L-240,17
			c1.4-1,3.2-1.3,4.9-1l14.7,3.2c1,0.2,1.9,0.7,2.7,1.3l7.2,4.9c2.6,1.8,1.5,6.3,0.4,7.9l-11.9,19.1l11.1,7.6c2.9,2,4,5.8,2.5,8.9
			l-0.1,0.1l-10.2,19.4C-221.5,94.1-224.2,96.7-227.2,96.7z M-227.3,92.3c0.1,0,0.1,0,0.1,0c0.2,0,1.8-0.2,4.9-5.8l10.1-19.3
			c0.5-1.3,0.1-2.7-1-3.5l-14.6-10l14.2-22.7c0.3-0.4,0.5-1.6,0.5-2.1l-7.2-4.9c-0.3-0.2-0.6-0.4-0.9-0.5l-14.7-3.2
			c-0.5-0.1-1.1,0-1.5,0.3l-12,9.2c-1.5,1.3-2.1,2.2-2.2,2.6c0.7,0,1.7-0.3,2.3-0.7l0.1-0.1l13.4-7.1l12.3,2.7l-13,19.3
			c-2.4,4.1-2.6,6.1,0.7,9l17.4,11.5l-7.4,18.2C-228,90.3-227.4,92-227.3,92.3z"/>
	</g>
	<g>
		<path d="M-208.7,51.5l-0.2,0c-2.4-0.3-4.4-2.3-5.2-4.1l-3.3-7.8l4-1.7l3.2,7.8c0.3,0.7,1,1.4,1.6,1.5c1.5,0,10.3-0.2,12.8-0.4
			c3-0.2,4-0.6,4.3-0.8c0-0.4-0.4-0.7-3.3-0.9l-11.7-1l-6.7-15.1l4-1.8l5.6,12.8l9.1,0.8c2.6,0.2,7.5,0.5,7.3,5.6
			c-0.2,4.4-6.4,4.7-8.4,4.8c-2.8,0.2-12.8,0.4-13.2,0.4L-208.7,51.5z"/>
	</g>
</g>
<g>
	<path d="M220.2-63c-1.1,0-2-0.7-2.1-1.8l-8.9-48l-4.2,14.1c-0.3,0.9-1.1,1.6-2.1,1.6h-26v-4.4h24.4l6.4-21.2c0.3-1,1.2-1.6,2.2-1.6
		c1,0.1,1.8,0.8,2,1.8l8.1,43.7l10.9-76.5c0.2-1.1,1.1-1.9,2.1-1.9c1.1,0,2,0.8,2.2,1.8l10.7,64.1l6.2-9.3c0.4-0.6,1.1-1,1.8-1h21.3
		v4.4h-20.1l-8.6,12.9c-0.5,0.7-1.4,1.1-2.3,0.9c-0.9-0.2-1.5-0.9-1.7-1.8l-9.3-55.6l-10.8,75.8C222.2-63.8,221.3-63,220.2-63
		C220.2-63,220.2-63,220.2-63z"/>
</g>
<g>
	<g>
		<g>
			<path d="M107.7-82.7c-0.1,0-0.3,0-0.4,0c-0.1,0-0.3,0-0.4,0v0c-12-0.3-20.3-6.9-22.3-17.8c-1.5-8.6,1.7-17.2,7.2-20.4
				c0-12.7,0-33.9,0.1-42.9c0.2-12,9.8-15.2,14.9-15.2c0.1,0,13.6,0,14,16.3c0.2,7.5,0.1,17.3,0.1,27.7c0,4.7-0.1,9.3-0.1,13.8
				c6.1,3.2,9.6,12.3,8.1,21.3C127.1-89.3,119.2-83,107.7-82.7L107.7-82.7L107.7-82.7z M106.8-174.6c-1.1,0-10.4,0.4-10.6,10.9
				c-0.1,9.3-0.1,31.7-0.1,44.2v1.5l-1.4,0.5c-4.4,1.6-7.1,9.1-5.8,16.2c0.7,4.2,4,14,18.4,14.2c13.6-0.2,16.7-9.5,17.4-13.5
				c1.3-7.4-1.9-15.4-6.7-17.1l-1.5-0.5v-1.5c0-4.9,0-10.1,0.1-15.3c0.1-10.4,0.1-20.2-0.1-27.6
				C116.1-174.2,107.8-174.6,106.8-174.6z"/>
		</g>
	</g>
	<g>
		<path d="M106.8-91.8c-6.8,0-12.3-5.5-12.3-12.3c0-6.8,5.5-12.3,12.3-12.3c6.8,0,12.3,5.5,12.3,12.3
			C119-97.3,113.5-91.8,106.8-91.8z M106.8-111.9c-4.4,0-7.9,3.5-7.9,7.9c0,4.4,3.5,7.9,7.9,7.9c4.4,0,7.9-3.5,7.9-7.9
			C114.7-108.4,111.1-111.9,106.8-111.9z"/>
	</g>
	<g>
		<path d="M106.8-111.9c-1.2,0-2.2-1-2.2-2.2v-43.2c0-1.2,1-2.2,2.2-2.2c1.2,0,2.2,1,2.2,2.2v43.2C109-112.9,108-111.9,106.8-111.9z
			"/>
	</g>
	<g>
		<path d="M83.6-163.6h-7.1c-1.2,0-2.2-1-2.2-2.2s1-2.2,2.2-2.2h7.1c1.2,0,2.2,1,2.2,2.2S84.8-163.6,83.6-163.6z"/>
	</g>
	<g>
		<path d="M83.6-144h-7.1c-1.2,0-2.2-1-2.2-2.2c0-1.2,1-2.2,2.2-2.2h7.1c1.2,0,2.2,1,2.2,2.2C85.7-145,84.8-144,83.6-144z"/>
	</g>
	<g>
		<path d="M83.6-124.5h-7.1c-1.2,0-2.2-1-2.2-2.2s1-2.2,2.2-2.2h7.1c1.2,0,2.2,1,2.2,2.2S84.8-124.5,83.6-124.5z"/>
	</g>
</g>
<g>
	<path d="M607.5,80.2c-0.8,0-1.5-0.3-2-0.9l-25.2-29.2c-0.9-1.1-0.8-2.7,0.3-3.7c1.1-0.9,2.7-0.8,3.7,0.3l22.8,26.4l36.3-60.3
		c0.7-1.2,2.4-1.6,3.6-0.9c1.2,0.7,1.6,2.4,0.9,3.6L609.8,79c-0.4,0.7-1.2,1.2-2,1.3C607.7,80.2,607.6,80.2,607.5,80.2z"/>
</g>
<g>
	<g>
		<path class="st0" d="M25.2,68.4L23.6,68c-2.9-0.8-6.1-1.3-9.3-1.5c-3.2-0.2-6.5-0.2-9.5,0.2l-1.6,0.2l-0.6-1.5
			c-2-5-2.9-11.2-2.4-17.6c1.1-14.4,8.2-25.3,16.7-25.3c0.2,0,0.5,0,0.7,0C26.2,23,32.1,35.1,31,49.9c-0.5,6.4-2.2,12.5-5,17.1
			L25.2,68.4z M10.4,61.9c1.4,0,2.8,0.1,4.2,0.2c2.9,0.2,5.8,0.6,8.5,1.3c2-3.8,3.2-8.7,3.6-13.8c0.9-12-3.5-22.5-9.5-22.9
			c-0.1,0-0.3,0-0.4,0c-5.2,0-11.4,8.6-12.3,21.3C4.1,53.1,4.7,58,6,62.1C7.4,62,8.9,61.9,10.4,61.9z"/>
	</g>
	<g>
		<path class="st0" d="M15.2,97.2c-6.3,0-11.6-8.1-11.9-18.5c0-1,0-2,0-2.9l0.1-2L25.9,73l0.2,2c0.1,1,0.2,2,0.2,2.9
			c0.3,10.6-4.4,19-10.9,19.3L15.2,97.2z M7.7,78c0,0.2,0,0.4,0,0.6C8,87,11.9,92.8,15.2,92.8l0.1,0c3.4-0.1,7-6.2,6.7-14.8
			c0-0.2,0-0.4,0-0.6L7.7,78z"/>
	</g>
	<g>
		<path class="st0" d="M49.2,46.1l-0.8-1.4c-2.7-4.6-4.5-10.7-5-17.1C42.3,12.8,48.2,0.7,56.9,0c0.2,0,0.5,0,0.7,0
			c8.5,0,15.6,10.9,16.7,25.3c0.5,6.4-0.4,12.7-2.4,17.6l-0.6,1.5l-1.6-0.2c-3-0.3-6.2-0.4-9.5-0.2c-3.3,0.2-6.4,0.8-9.3,1.5
			L49.2,46.1z M57.6,4.4c-0.1,0-0.3,0-0.4,0c-6,0.4-10.4,10.9-9.5,22.9c0.4,5.1,1.6,9.9,3.6,13.8c2.7-0.6,5.5-1,8.5-1.3
			c2.9-0.2,5.8-0.2,8.6,0c1.4-4.1,1.9-9,1.6-14.1C69,12.9,62.8,4.4,57.6,4.4z"/>
	</g>
	<g>
		<path class="st0" d="M59.2,74.9l-0.2,0c-6.5-0.2-11.3-8.7-10.9-19.3c0-1,0.1-2,0.2-2.9l0.2-2l22.4,0.7l0.1,2c0.1,1,0.1,2,0,2.9
			C70.8,66.8,65.5,74.9,59.2,74.9z M52.4,55.2c0,0.2,0,0.4,0,0.6c-0.3,8.6,3.3,14.6,6.7,14.8l0.1,0c3.3,0,7.3-5.9,7.5-14.3
			c0-0.2,0-0.4,0-0.6L52.4,55.2z"/>
	</g>
</g>
<g>
	<g>
		<rect x="-510.2" y="-165.7" transform="matrix(0.7071 -0.7071 0.7071 0.7071 -23.4009 -382.6627)" width="73.1" height="5.2"/>
	</g>
	<g>
		<path d="M-489-123.1c-0.7,0-1.3-0.3-1.8-0.8l-21.7-21.7c-1-1-1-2.7,0-3.7c1-1,2.7-1,3.7,0l21.7,21.7c1,1,1,2.7,0,3.7
			C-487.7-123.4-488.3-123.1-489-123.1z"/>
	</g>
	<g>
		<path d="M-501.1-124.4c-0.6,0-1.1-0.2-1.5-0.6l-8.1-8.1c-0.9-0.9-0.9-2.2,0-3.1c0.9-0.9,2.2-0.9,3.1,0l8.1,8.1
			c0.9,0.9,0.9,2.2,0,3.1C-500-124.6-500.6-124.4-501.1-124.4z"/>
	</g>
	<g>
		<path d="M-438.5-174.4c-0.7,0-1.3-0.3-1.8-0.8l-21.7-21.7c-1-1-1-2.7,0-3.7c1-1,2.7-1,3.7,0l21.7,21.7c1,1,1,2.7,0,3.7
			C-437.1-174.6-437.8-174.4-438.5-174.4z"/>
	</g>
	<g>
		<path d="M-509.7-123.3c-0.7,0-1.3-0.3-1.9-0.8c-1-1-1-2.7,0-3.7l4.1-4.1c1-1,2.7-1,3.7,0c1,1,1,2.7,0,3.7l-4.1,4.1
			C-508.4-123.5-509-123.3-509.7-123.3z"/>
	</g>
	<g>
		<path d="M-439.2-186.8c-0.6,0-1.1-0.2-1.5-0.6l-8.1-8.1c-0.9-0.9-0.9-2.2,0-3.1c0.9-0.9,2.2-0.9,3.1,0l8.1,8.1
			c0.9,0.9,0.9,2.2,0,3.1C-438.1-187-438.7-186.8-439.2-186.8z"/>
	</g>
	<g>
		<path d="M-442.9-191.1c-0.7,0-1.3-0.3-1.9-0.8c-1-1-1-2.7,0-3.7l4.1-4.1c1-1,2.7-1,3.7,0c1,1,1,2.7,0,3.7l-4.1,4.1
			C-441.5-191.4-442.2-191.1-442.9-191.1z"/>
	</g>
</g>
<g>
	<g>
		<g>
			<path d="M-27.6-109h-35.3c-0.6,0-1.1-0.2-1.5-0.6c-0.4-0.4-0.6-1-0.6-1.6c0-0.4,0.3-35.6,0-56.3c-0.1-7,1.5-12.2,4.7-15.4
				c3.1-3.1,6.9-3.8,9.6-3.8c2.1,0,3.6,0.4,3.7,0.4c1,0.3,1.6,1.1,1.6,2.1c0,10.7,7.6,19.6,18.2,21.3c1.1,0.2,1.8,1.1,1.8,2.2v49.5
				C-25.4-110-26.4-109-27.6-109z M-60.7-113.4h30.9v-45.6c-11.1-2.6-19.1-12-19.9-23.4c-1.9-0.2-5.1,0-7.6,2.4
				c-2.4,2.4-3.5,6.6-3.5,12.3C-60.4-149.9-60.6-121.5-60.7-113.4z"/>
		</g>
		<g>
			<path d="M15.7-109h-35.3c-1.2,0-2.2-1-2.2-2.2v-49.5c0-1.1,0.8-2,1.8-2.2c10.5-1.7,18.2-10.6,18.2-21.3c0-1.1,0.8-2,1.9-2.2
				c0.3,0,7.6-1.1,12.9,4.2c3.3,3.3,4.9,8.2,4.9,14.6c0,18.9,0,56.3,0,56.3c0,0.6-0.2,1.1-0.6,1.5C16.8-109.3,16.2-109,15.7-109z
				 M-17.5-113.4h30.9c0-8.3,0-38,0-54.1c0-5.2-1.2-9.1-3.7-11.5c-2.4-2.4-5.4-2.9-7.4-3c-0.9,11.3-8.9,20.6-19.9,23.1
				C-17.5-158.9-17.5-113.4-17.5-113.4z"/>
		</g>
		<g>
			<path d="M-23.4-165.3c-11,0-19.9-8.9-19.9-19.9s8.9-19.9,19.9-19.9c11,0,19.9,8.9,19.9,19.9S-12.4-165.3-23.4-165.3z
				 M-23.4-200.8c-8.6,0-15.5,7-15.5,15.5c0,8.6,7,15.5,15.5,15.5c8.6,0,15.5-7,15.5-15.5C-7.9-193.8-14.8-200.8-23.4-200.8z"/>
		</g>
	</g>
	<g>
		<rect x="-25.6" y="-203" width="4.4" height="5.4"/>
	</g>
	<g>
		<rect x="-11.1" y="-187.4" width="5.4" height="4.4"/>
	</g>
	<g>
		<rect x="-41.1" y="-187.4" width="5.4" height="4.4"/>
	</g>
	<g>
		<path d="M-23.2-183.3l2.3-2.5c0,0-9.8-8.6-10.7-7.6C-32.4-192.5-23.2-183.3-23.2-183.3"/>
	</g>
	<g>
		<circle cx="-23" cy="-185.4" r="3"/>
	</g>
</g>
<g>
	<g>
		<g>
			<path d="M-252.6-149.1c1.3-0.7,2.6-1.3,4-1.7c0-0.2-0.1-0.4-0.2-0.6C-250.2-150.7-251.4-150-252.6-149.1
				C-252.6-149.1-252.6-149.1-252.6-149.1z"/>
		</g>
		<g>
			<path d="M-265.1-115.7c-2.9,3.2-6.6,7.1-8,8.7c0,0-0.2,0.1-0.3,0.2c0-0.1-0.2-0.2-0.3-0.3c-7.8-8.9-20.8-24-20.8-37.8
				c0-11.7,9.5-21.2,21.2-21.2c8.4,0,15.6,4.9,19,11.9c1.2-0.8,2.4-1.5,3.7-2.1c-4.2-8.4-12.8-14.1-22.7-14.1
				c-14,0-25.4,11.2-25.4,25.4c0,14.8,12.7,30,22,40.6c0,0,1.5,1.7,3.4,1.7h0.2c1.8,0,3.3-1.7,3.4-1.7c1.1-1.3,4.1-4.5,6.6-7.2
				C-264-112.8-264.6-114.3-265.1-115.7z"/>
		</g>
	</g>
	<g>
		<path d="M-238.7-155.2c-14,0-25.4,11.2-25.4,25.4c0,14.8,12.7,30,22,40.6c0,0,1.5,1.7,3.4,1.7h0.2c1.8,0,3.3-1.7,3.4-1.7
			c9.3-10.6,22-25.8,22-40.6C-213.3-143.9-224.7-155.2-238.7-155.2 M-238.5-92c0,0-0.2,0.1-0.3,0.2c0-0.1-0.2-0.2-0.3-0.3
			c-7.8-8.9-20.8-24-20.8-37.8c0-11.7,9.5-21.2,21.2-21.2c11.7,0,21.2,9.5,21.2,21.2C-217.6-116-230.7-101-238.5-92"/>
	</g>
</g>
<g>
	<g>
		<path d="M-354.7-141.9c-7.6,0-13.7-6.2-13.7-13.7c0-7.6,6.2-13.7,13.7-13.7c7.6,0,13.7,6.2,13.7,13.7
			C-341-148.1-347.1-141.9-354.7-141.9z M-354.7-165c-5.2,0-9.4,4.2-9.4,9.4c0,5.2,4.2,9.4,9.4,9.4s9.4-4.2,9.4-9.4
			C-345.4-160.8-349.6-165-354.7-165z"/>
	</g>
	<g>
		<path d="M-321.8-155.7c0,9.1-3.7,17.3-9.7,23.3l3.3,3.3c6.8-6.8,11-16.2,11-26.6c0-10.4-4.2-19.8-11-26.6l-3.3,3.3
			C-325.5-173-321.8-164.7-321.8-155.7"/>
	</g>
	<g>
		<path d="M-387.7-155.7c0-9.1,3.7-17.3,9.7-23.3l-3.3-3.3c-6.8,6.8-11,16.2-11,26.6s4.2,19.8,11,26.6l3.3-3.3
			C-384-138.3-387.7-146.6-387.7-155.7"/>
	</g>
	<g>
		<path d="M-333.5-155.7c0,5.8-2.4,11.1-6.2,15l3.3,3.3c4.7-4.7,7.6-11.2,7.6-18.3c0-7.1-2.9-13.6-7.6-18.3l-3.3,3.3
			C-335.9-166.8-333.5-161.5-333.5-155.7"/>
	</g>
	<g>
		<path d="M-375.9-155.7c0-5.8,2.4-11.1,6.2-15l-3.3-3.3c-4.7,4.7-7.6,11.2-7.6,18.3c0,7.1,2.9,13.6,7.6,18.3l3.3-3.3
			C-373.5-144.5-375.9-149.8-375.9-155.7"/>
	</g>
	<g>
		<path d="M-354.7-102.6c-1.2,0-2.2-1-2.2-2.2v-37.3c0-1.2,1-2.2,2.2-2.2c1.2,0,2.2,1,2.2,2.2v37.3
			C-352.5-103.6-353.5-102.6-354.7-102.6z"/>
	</g>
</g>
<g>
	<g>
		<path d="M-116.6-116.4h-52c-1.2,0-2.2-1-2.2-2.2v-52c0-1.2,1-2.2,2.2-2.2h52c1.2,0,2.2,1,2.2,2.2v52
			C-114.4-117.4-115.4-116.4-116.6-116.4z M-166.4-120.8h47.7v-47.7h-47.7V-120.8z"/>
	</g>
	<g>
		<path d="M-130-129.9h-25.1c-1.2,0-2.2-1-2.2-2.2v-25.1c0-1.2,1-2.2,2.2-2.2h25.1c1.2,0,2.2,1,2.2,2.2v25.1
			C-127.9-130.8-128.8-129.9-130-129.9z M-153-134.2h20.8V-155H-153V-134.2z"/>
	</g>
	<g>
		<path d="M-160.2-178.5c-1.2,0-2.2-1-2.2-2.2v-10.1c0-1.2,1-2.2,2.2-2.2c1.2,0,2.2,1,2.2,2.2v10.1
			C-158-179.5-159-178.5-160.2-178.5z"/>
	</g>
	<g>
		<path d="M-142.6-178.5c-1.2,0-2.2-1-2.2-2.2v-10.1c0-1.2,1-2.2,2.2-2.2c1.2,0,2.2,1,2.2,2.2v10.1
			C-140.4-179.5-141.4-178.5-142.6-178.5z"/>
	</g>
	<g>
		<path d="M-125-178.5c-1.2,0-2.2-1-2.2-2.2v-10.1c0-1.2,1-2.2,2.2-2.2c1.2,0,2.2,1,2.2,2.2v10.1
			C-122.8-179.5-123.8-178.5-125-178.5z"/>
	</g>
	<g>
		<path d="M-160.2-95.2c-1.2,0-2.2-1-2.2-2.2v-10.1c0-1.2,1-2.2,2.2-2.2c1.2,0,2.2,1,2.2,2.2v10.1C-158-96.1-159-95.2-160.2-95.2z"
			/>
	</g>
	<g>
		<path d="M-142.6-95.2c-1.2,0-2.2-1-2.2-2.2v-10.1c0-1.2,1-2.2,2.2-2.2c1.2,0,2.2,1,2.2,2.2v10.1
			C-140.4-96.1-141.4-95.2-142.6-95.2z"/>
	</g>
	<g>
		<path d="M-125-95.2c-1.2,0-2.2-1-2.2-2.2v-10.1c0-1.2,1-2.2,2.2-2.2c1.2,0,2.2,1,2.2,2.2v10.1C-122.8-96.1-123.8-95.2-125-95.2z"
			/>
	</g>
	<g>
		<path d="M-95.6-160h-10c-1.2,0-2.2-1-2.2-2.2c0-1.2,1-2.2,2.2-2.2h10c1.2,0,2.2,1,2.2,2.2C-93.4-161-94.4-160-95.6-160z"/>
	</g>
	<g>
		<path d="M-95.6-142.4h-10c-1.2,0-2.2-1-2.2-2.2c0-1.2,1-2.2,2.2-2.2h10c1.2,0,2.2,1,2.2,2.2C-93.4-143.4-94.4-142.4-95.6-142.4z"
			/>
	</g>
	<g>
		<path d="M-95.6-124.8h-10c-1.2,0-2.2-1-2.2-2.2c0-1.2,1-2.2,2.2-2.2h10c1.2,0,2.2,1,2.2,2.2C-93.4-125.8-94.4-124.8-95.6-124.8z"
			/>
	</g>
	<g>
		<path d="M-179.2-160h-10c-1.2,0-2.2-1-2.2-2.2c0-1.2,1-2.2,2.2-2.2h10c1.2,0,2.2,1,2.2,2.2C-177-161-178-160-179.2-160z"/>
	</g>
	<g>
		<path d="M-179.2-142.4h-10c-1.2,0-2.2-1-2.2-2.2c0-1.2,1-2.2,2.2-2.2h10c1.2,0,2.2,1,2.2,2.2C-177-143.4-178-142.4-179.2-142.4z"
			/>
	</g>
	<g>
		<path d="M-179.2-124.8h-10c-1.2,0-2.2-1-2.2-2.2c0-1.2,1-2.2,2.2-2.2h10c1.2,0,2.2,1,2.2,2.2C-177-125.8-178-124.8-179.2-124.8z"
			/>
	</g>
</g>
<g>
	<g>
		<g>
			<path d="M409.4-83.9l-12-6.9c-1-0.6-1.4-1.9-0.8-3c0.6-1,1.9-1.4,3-0.8l8.3,4.8c3.8-6.6,5.8-14.1,5.8-21.7
				c0-24-19.5-43.6-43.6-43.6c-15,0-28.8,7.6-36.8,20.2c-4.4,7-6.8,15-6.8,23.3c0,7.7,2,15.1,5.8,21.7l8.7-4.3
				c1.1-0.5,2.4-0.1,2.9,1c0.5,1.1,0.1,2.4-1,2.9l-12.3,6l-1-1.6c-4.9-7.7-7.5-16.6-7.5-25.7c0-9.1,2.6-18,7.4-25.7
				c8.9-13.9,24-22.3,40.5-22.3c26.4,0,47.9,21.5,47.9,47.9c0,9.2-2.6,18.2-7.6,25.9L409.4-83.9z"/>
		</g>
		<g>
			<path d="M399.1-127.9c-0.8,0-1.5-0.4-1.9-1.1c-0.6-1.1-0.2-2.4,0.9-3l9.1-5c1.1-0.6,2.4-0.2,3,0.9c0.6,1.1,0.2,2.4-0.9,3l-9.1,5
				C399.8-128,399.4-127.9,399.1-127.9z"/>
		</g>
		<g>
			<path d="M370.2-143c-1.2,0-2.2-1-2.2-2.2v-12.1c0-1.2,1-2.2,2.2-2.2s2.2,1,2.2,2.2v12.1C372.4-144,371.4-143,370.2-143z"/>
		</g>
		<g>
			<path d="M341.2-127.9c-0.4,0-0.8-0.1-1.1-0.3l-9.6-6c-1-0.6-1.3-2-0.7-3c0.6-1,2-1.3,3-0.7l9.6,6c1,0.6,1.3,2,0.7,3
				C342.6-128.2,341.9-127.9,341.2-127.9z"/>
		</g>
	</g>
	<g>
		<path d="M385.6-82.7h-29.2c-1.2,0-2.2-1-2.2-2.2s1-2.2,2.2-2.2h29.2c1.2,0,2.2,1,2.2,2.2S386.8-82.7,385.6-82.7z"/>
	</g>
	<path d="M370.2-122c-4.7,0-8.5,3.8-8.5,8.5c0,4.7,3.8,8.5,8.5,8.5c4.7,0,8.5-3.8,8.5-8.5C378.7-118.2,374.9-122,370.2-122z
		 M370.2-109.1c-2.4,0-4.4-2-4.4-4.4c0-2.4,2-4.4,4.4-4.4c2.4,0,4.4,2,4.4,4.4C374.6-111,372.7-109.1,370.2-109.1z"/>
	<g>
		<path d="M368.4-117.5c-1.3,0-2,0-2,0l0.1,1.6C366.9-116.6,367.6-117.2,368.4-117.5z"/>
		<path d="M372-117.5c1.6,0.7,2.7,2.2,2.7,4.1c0,2.4-2,4.4-4.4,4.4c-1.4,0-2.6-0.7-3.4-1.7l0.2,2.9c0,0,36.8-3.2,36.6-6.9
			C403.4-117.3,382.3-117.6,372-117.5z"/>
	</g>
</g>
<g>
	<g>
		<path d="M-94,20.4C-94,20.4-94,20.4-94,20.4c-4.4,0-8.4-2.8-9.9-7c-2-5.5,0.9-11.5,6.3-13.5c1.2-0.4,2.4-0.6,3.6-0.6
			c4.4,0,8.4,2.8,9.9,7c2,5.5-0.9,11.5-6.3,13.5C-91.6,20.2-92.8,20.4-94,20.4z M-94,3.6c-0.7,0-1.4,0.1-2.1,0.4
			c-3.2,1.2-4.9,4.7-3.7,7.9C-99,14.4-96.6,16-94,16h0c0.7,0,1.4-0.1,2.1-0.4c3.2-1.2,4.9-4.7,3.7-7.9C-89.1,5.3-91.4,3.6-94,3.6z"
			/>
	</g>
	<g>
		<path d="M-118.8,96.7c-0.7,0-1.4-0.2-2.1-0.6c-5.3-3-2.7-7.7-1.3-10.2c0.4-0.7,0.8-1.4,1-2c1.9-4.8,4.7-13.2,5-14l3.4-12.8
			l4.2,1.1l-3.4,13c-0.1,0.4-3,9.2-5.1,14.4c-0.3,0.8-0.8,1.7-1.2,2.4c-1.9,3.4-1.5,3.6-0.4,4.3c1-0.6,3-4.1,3.9-5.9
			c4.2-7.5,4.7-8.4,4.7-8.4l0.4-0.7c1.4-2.7,1.9-3.7,2.8-6.3l1.5-4l4.1,1.5l-1.5,4c-1.1,3-1.6,4.1-3.4,7.6l-0.4,0.7l-0.1,0
			c-0.5,0.9-1.7,3.1-4.3,7.7c-2.5,4.5-4.2,7.3-6.7,8C-118.1,96.6-118.4,96.7-118.8,96.7z"/>
	</g>
	<g>
		<path d="M-90.9,96.4C-90.9,96.4-90.9,96.4-90.9,96.4c-1.9,0-4.5-1.3-8.8-10.9l-0.1-0.2l-3.1-9.3l-4.7-13.8
			c-6.4-2.8-6.5-7.8-5.6-12.8l2.7-13.2l-1.8,0.9l-7.1,8.2c-0.2,0.2-0.4,0.5-0.6,0.7c-1.8,2.4-3.4,4.3-5.4,4.3
			c-0.6,0-1.2-0.2-1.7-0.6c-4.1-3,0.7-11.7,0.9-12.1l0.1-0.1l7.8-12.6c1-1.4,3.5-2.9,5.2-3.2l10.1-2.9c1-0.1,2,0,3,0.3l8.5,2.1
			c3,0.8,3.6,5.4,3.1,7.3l-5.1,24.1l-0.8,3.2c0,3.7,0,3.8,0.4,7.5l5.4,15.7c1.5,5.3,3,14.7-1,16.8C-89.8,96.3-90.4,96.4-90.9,96.4z
			 M-95.6,83.8c2.1,4.6,3.5,6.7,4.3,7.6c0.3-1.7,0.3-5.5-1.2-10.9l-5.5-16l0-0.3c-0.4-4.1-0.4-4.2-0.4-8.4l0-0.3l0.9-3.7l5.2-24.1
			c0.1-0.5,0-1.6-0.3-2.1l-8.5-2.1c-0.3-0.1-0.6-0.2-0.8-0.1l-10,2.8c-0.6,0.1-2,1-2.4,1.4l-7.7,12.3c-0.8,1.4-1.4,3-1.7,4.3
			c0.2-0.3,0.4-0.6,0.6-0.8c0.3-0.3,0.5-0.6,0.7-0.9l0.1-0.1l7.7-8.8l10.7-5.6l-4.6,22.2c-0.8,4.7-0.4,6.7,3.8,8.3l1,0.4l5.4,15.8
			L-95.6,83.8z"/>
	</g>
	<g>
		<path d="M-68.6,55.5c-1.7,0-3.9-0.7-6.8-1.6c-0.4-0.1-0.9-0.3-1.2-0.4c-3.5-1.1-9.8-4-10.1-4.1l-0.5-0.2l-0.3-0.5
			c-0.7-0.9-0.8-1.1-0.9-1.2c-0.1-0.1-0.1-0.1-1-1.4l-0.1-0.2l-0.1-0.3l-3.8-9.1l4-1.7l3.7,8.8c0.5,0.7,0.7,0.9,0.7,1
			c0.1,0.1,0.2,0.3,0.7,0.9c1.6,0.7,6.3,2.8,9.1,3.7c0.4,0.1,0.8,0.3,1.3,0.4c0.8,0.3,2.2,0.7,3.5,1.1c-1.8-1.7-5.4-3.6-7.3-4.5
			c-1.4-0.7-2.5-1.3-3.4-1.9l-0.4-0.3l-4.4-7.6l-6.8-11.1l3.7-2.3l6.9,11.2l3.9,6.8c0.7,0.4,1.6,0.9,2.6,1.4
			C-71,44.9-65,48-65.1,52.5c0,1-0.4,1.8-1.2,2.3C-66.9,55.3-67.7,55.5-68.6,55.5z"/>
	</g>
</g>
<g>
	<g>
		<path d="M324.5,93.1c-24.3,0-44.1-19.8-44.1-44.2c0-24.3,19.8-44.1,44.1-44.1c24.3,0,44.1,19.8,44.1,44.1
			C368.7,69.7,349.8,93.1,324.5,93.1z M324.5,9.1c-21.9,0-39.8,17.8-39.8,39.8c0,21.9,17.8,39.8,39.8,39.8
			c22.4,0,39.8-21.4,39.8-39.8C364.3,27,346.5,9.1,324.5,9.1z"/>
	</g>
	<g>
		<path d="M342.4,63.5c-0.4,0-0.9-0.1-1.2-0.4l-17.9-12.4c-0.6-0.4-0.9-1.1-0.9-1.8V24.1c0-1.2,1-2.2,2.2-2.2s2.2,1,2.2,2.2v23.6
			l16.9,11.7c1,0.7,1.2,2,0.6,3C343.8,63.1,343.1,63.5,342.4,63.5z"/>
	</g>
	<g>
		<path d="M366.5,51.1h-6.6c-1.2,0-2.2-1-2.2-2.2c0-1.2,1-2.2,2.2-2.2h6.6c1.2,0,2.2,1,2.2,2.2C368.7,50.1,367.7,51.1,366.5,51.1z"
			/>
	</g>
	<g>
		<path d="M289.4,51.1h-6.8c-1.2,0-2.2-1-2.2-2.2c0-1.2,1-2.2,2.2-2.2h6.8c1.2,0,2.2,1,2.2,2.2C291.5,50.1,290.6,51.1,289.4,51.1z"
			/>
	</g>
	<g>
		<path d="M324.5,93.1c-1.2,0-2.2-1-2.2-2.2V84c0-1.2,1-2.2,2.2-2.2s2.2,1,2.2,2.2v6.9C326.7,92.1,325.7,93.1,324.5,93.1z"/>
	</g>
	<g>
		<path d="M324.5,16c-1.2,0-2.2-1-2.2-2.2V6.9c0-1.2,1-2.2,2.2-2.2s2.2,1,2.2,2.2v6.9C326.7,15,325.7,16,324.5,16z"/>
	</g>
</g>
<g>
	<g>
		<g>
			<g>
				<path d="M441.4,60.1c-0.7,0-1.3-0.3-1.7-0.8l-14.9-17.2c-0.8-1-0.7-2.4,0.2-3.2c0.9-0.8,2.4-0.7,3.2,0.2L441.2,54l10.7-16.6
					c0.7-1.1,2.1-1.4,3.1-0.7c1.1,0.7,1.4,2.1,0.7,3.1L443.3,59c-0.4,0.6-1,1-1.8,1C441.5,60.1,441.5,60.1,441.4,60.1z"/>
			</g>
		</g>
		<g>
			<g>
				<path d="M530.1,65.7c-0.7,0-1.5-0.3-1.9-1l-11-16.3l-12.6,15.1c-0.8,1-2.2,1.1-3.2,0.3c-1-0.8-1.1-2.2-0.3-3.2l14.6-17.4
					c0.5-0.6,1.1-0.9,1.9-0.8c0.7,0,1.4,0.4,1.8,1l12.7,18.9c0.7,1,0.4,2.5-0.6,3.2C530.9,65.6,530.5,65.7,530.1,65.7z"/>
			</g>
		</g>
		<g>
			<g>
				<path d="M478.9,89.8c-10.6,0-20.9-4.1-28.6-11.8c-0.9-0.9-0.9-2.3,0-3.2c0.9-0.9,2.3-0.9,3.2,0c9,8.9,21.7,12.4,33.9,9.5
					c17.9-4.2,29.9-21.2,27.8-39.5c-0.1-1.2,0.8-2.4,2-2.5c1.3-0.2,2.4,0.8,2.5,2c2.4,20.6-11.1,39.6-31.2,44.4
					C485.3,89.5,482.1,89.8,478.9,89.8z"/>
			</g>
		</g>
		<g>
			<g>
				<path d="M441.4,60.1c-1,0-2-0.7-2.2-1.8c-2.5-10.6-0.7-21.6,5-30.9c5.7-9.3,14.8-15.8,25.4-18.3c14.7-3.5,30,1.4,40.1,12.7
					c0.8,0.9,0.7,2.4-0.2,3.2c-0.9,0.8-2.4,0.7-3.2-0.2c-8.9-10.1-22.6-14.4-35.6-11.3c-9.4,2.2-17.5,8-22.6,16.3
					c-5.1,8.3-6.7,18-4.4,27.5c0.3,1.2-0.5,2.5-1.7,2.7C441.8,60,441.6,60.1,441.4,60.1z"/>
			</g>
		</g>
	</g>
</g>
<g>
	<g>
		<path d="M181,82.3c-17.1,0-35.6-3.7-35.6-11.8v-0.9l6.8-6.3V39.9c0-18,12-31.1,28.5-31.1c16.5,0,28.5,13.1,28.5,31.1v23.3l7.5,6.3
			v1C216.6,78.6,198.2,82.3,181,82.3z M150.1,71.2c1.7,2.6,12.5,6.7,31,6.7c18.3,0,29.1-4,30.9-6.6l-7.2-6.1V39.9
			c0-15.5-10.1-26.7-24.1-26.7s-24.1,11.2-24.1,26.7v25.3L150.1,71.2z"/>
	</g>
	<g>
		<path d="M189.2,84.3c0,3.6-3.8,6.6-8.6,6.6c-4.7,0-8.6-2.9-8.6-6.6H189.2z"/>
		<path d="M180.7,91.3c-5,0-9-3.1-9-7v-0.4h18v0.4C189.7,88.2,185.6,91.3,180.7,91.3z M172.6,84.7c0.3,3.2,3.8,5.7,8.1,5.7
			c4.3,0,7.8-2.5,8.1-5.7H172.6z"/>
	</g>
	<g>
		<path d="M184.1,11V7.5c0-1.7-1.5-3.1-3.5-3.1c-1.9,0-3.5,1.4-3.5,3.1V11"/>
		<path d="M184.6,11h-0.9V7.5c0-1.5-1.4-2.7-3-2.7c-1.7,0-3,1.2-3,2.7V11h-0.9V7.5c0-1.9,1.7-3.5,3.9-3.5c2.1,0,3.9,1.6,3.9,3.5
			L184.6,11L184.6,11z"/>
	</g>
</g>
</svg>
