<?xml version="1.0" encoding="utf-8"?>
<!-- Generator: Adobe Illustrator 23.0.3, SVG Export Plug-In . SVG Version: 6.00 Build 0)  -->
<svg version="1.1" id="Layer_1" xmlns="http://www.w3.org/2000/svg" xmlns:xlink="http://www.w3.org/1999/xlink" x="0px" y="0px"
	 viewBox="0 0 43.7 87.5" style="enable-background:new 0 0 43.7 87.5;" xml:space="preserve">
<style type="text/css">
	.st0{fill:#444444;}
</style>
<path class="st0" d="M-275.6,10.2c-1.2-0.5-2.6-0.2-3.4,0.8l-37.5,40.6c-1.1,1.2-1.1,3,0,4.2l37.5,40.6c0.6,0.6,1.4,1,2.3,1
	c0.4,0,0.8-0.1,1.1-0.2c1.2-0.5,2-1.6,2-2.9V73.8c0-0.8-0.3-1.6-0.8-2.1l-16.8-17.9l16.8-17.9c0.5-0.6,0.8-1.3,0.8-2.1V13.1
	C-273.6,11.8-274.4,10.7-275.6,10.2z"/>
<path class="st0" d="M42.9,41.6L5.4,1C4.5,0.1,3.2-0.3,2,0.2C0.8,0.7,0,1.8,0,3.1v20.6c0,0.8,0.3,1.6,0.8,2.1l16.7,17.9L0.8,61.7
	C0.3,62.3,0,63,0,63.8v20.6c0,1.3,0.8,2.4,2,2.9c0.4,0.1,0.8,0.2,1.1,0.2c0.9,0,1.7-0.4,2.3-1l37.5-40.6C44,44.7,44,42.8,42.9,41.6z
	"/>
</svg>
