<?xml version="1.0" encoding="utf-8"?>
<!-- Generator: Adobe Illustrator 23.0.3, SVG Export Plug-In . SVG Version: 6.00 Build 0)  -->
<svg version="1.1" id="Layer_1" xmlns="http://www.w3.org/2000/svg" xmlns:xlink="http://www.w3.org/1999/xlink" x="0px" y="0px"
	 viewBox="0 0 43.7 87.5" style="enable-background:new 0 0 43.7 87.5;" xml:space="preserve">
<style type="text/css">
	.st0{fill:#444444;}
</style>
<path class="st0" d="M41.8,0.2c-1.2-0.5-2.6-0.2-3.4,0.8L0.8,41.6c-1.1,1.2-1.1,3,0,4.2l37.5,40.6c0.6,0.6,1.4,1,2.3,1
	c0.4,0,0.8-0.1,1.1-0.2c1.2-0.5,2-1.6,2-2.9V63.8c0-0.8-0.3-1.6-0.8-2.1L26.2,43.7l16.8-17.9c0.5-0.6,0.8-1.3,0.8-2.1V3.1
	C43.7,1.8,43,0.7,41.8,0.2z"/>
<path class="st0" d="M179.2,21.6L141.7-19c-0.9-0.9-2.2-1.3-3.4-0.8c-1.2,0.5-2,1.6-2,2.9V3.7c0,0.8,0.3,1.6,0.8,2.1l16.7,17.9
	l-16.8,17.9c-0.5,0.6-0.8,1.3-0.8,2.1v20.6c0,1.3,0.8,2.4,2,2.9c0.4,0.1,0.8,0.2,1.1,0.2c0.9,0,1.7-0.4,2.3-1l37.5-40.6
	C180.3,24.7,180.3,22.8,179.2,21.6z"/>
</svg>
