<?xml version="1.0" encoding="utf-8"?>
<!-- Generator: Adobe Illustrator 23.0.3, SVG Export Plug-In . SVG Version: 6.00 Build 0)  -->
<svg version="1.1" id="Layer_1" xmlns="http://www.w3.org/2000/svg" xmlns:xlink="http://www.w3.org/1999/xlink" x="0px" y="0px"
	 viewBox="0 0 100 100" style="enable-background:new 0 0 100 100;" xml:space="preserve">
<style type="text/css">
	.st0{fill:#444444;}
</style>
<g>
	<g>
		<path class="st0" d="M14.6,20.8c-3.4,0-6.2-2.8-6.2-6.3s2.8-6.2,6.2-6.2s6.2,2.8,6.2,6.2S18,20.8,14.6,20.8z M14.6,12.5
			c-1.2,0-2.1,0.9-2.1,2.1s0.9,2.1,2.1,2.1s2.1-0.9,2.1-2.1S15.7,12.5,14.6,12.5z"/>
	</g>
	<g>
		<path class="st0" d="M14.6,41.7c-0.7,0-1.3-0.3-1.7-0.9C11.6,38.9,0,21.9,0,14.6C0,6.5,6.5,0,14.6,0s14.6,6.5,14.6,14.6
			c0,7.3-11.6,24.3-12.9,26.2C15.9,41.3,15.3,41.7,14.6,41.7z M14.6,4.2C8.8,4.2,4.2,8.8,4.2,14.6c0,4,5.8,14.3,10.4,21.3
			c4.6-7,10.4-17.2,10.4-21.3C25,8.8,20.3,4.2,14.6,4.2z"/>
	</g>
	<g>
		<path class="st0" d="M81.2,70.8c-5.7,0-10.4-4.7-10.4-10.4S75.5,50,81.2,50c5.7,0,10.4,4.7,10.4,10.4S87,70.8,81.2,70.8z
			 M81.2,54.2c-3.4,0-6.2,2.8-6.2,6.2s2.8,6.2,6.2,6.2s6.2-2.8,6.2-6.2S84.7,54.2,81.2,54.2z"/>
	</g>
	<g>
		<path class="st0" d="M81.2,100c-0.7,0-1.4-0.4-1.8-1c-1.7-2.9-17-29.1-17-38.6c0-10.3,8.4-18.8,18.8-18.8S100,50.1,100,60.4
			C100,69.9,84.8,96,83,99C82.7,99.6,82,100,81.2,100z M81.2,45.8c-8,0-14.6,6.5-14.6,14.6c0,6.3,9.3,24,14.6,33.3
			c5.3-9.3,14.6-27,14.6-33.3C95.8,52.4,89.3,45.8,81.2,45.8z"/>
	</g>
	<g>
		<path class="st0" d="M72.9,100c-3.2,0-6.1-0.3-8.7-0.8c-1.1-0.2-1.9-1.3-1.6-2.5c0.2-1.1,1.3-1.8,2.5-1.6c2.3,0.5,4.9,0.7,7.8,0.7
			c1.1,0,2.1,0.9,2.1,2.1S74.1,100,72.9,100z M57,96.3c-0.4,0-0.8-0.1-1.1-0.3c-2.6-1.7-4.7-3.9-6.3-6.7c-0.6-1-0.2-2.3,0.8-2.8
			c1-0.6,2.3-0.2,2.8,0.8c1.2,2.2,2.9,3.9,4.9,5.2c1,0.6,1.3,1.9,0.6,2.9C58.4,96,57.7,96.3,57,96.3z M48.6,82.5c-1,0-1.8-0.7-2-1.7
			c-0.6-3-0.9-6.1-1.1-8.5c-0.1-1.1,0.8-2.2,1.9-2.2c1.1-0.1,2.1,0.8,2.2,1.9c0.2,2.3,0.5,5.3,1,8c0.2,1.1-0.5,2.2-1.6,2.5
			C48.9,82.5,48.8,82.5,48.6,82.5z M47,65.9c-1.1,0-2-0.8-2.1-1.9c-0.3-3.3-0.6-5.8-1.1-8c-0.3-1.1,0.4-2.2,1.6-2.5
			c1.1-0.3,2.2,0.4,2.5,1.6c0.5,2.4,0.9,5,1.2,8.5c0.1,1.1-0.8,2.2-1.9,2.2C47.1,65.9,47,65.9,47,65.9z M42.8,50
			c-0.7,0-1.4-0.3-1.8-1c-1.3-2.1-3.1-3.6-5.2-4.8c-1-0.5-1.4-1.8-0.9-2.8c0.5-1,1.8-1.4,2.8-0.9c2.8,1.5,5.1,3.6,6.8,6.2
			c0.6,1,0.3,2.3-0.6,2.9C43.6,49.9,43.2,50,42.8,50z M28.9,42.1c-0.1,0-0.2,0-0.3,0c-1.7-0.2-3.7-0.3-5.7-0.4l0,0
			c-1.1,0-2.1-0.9-2.1-2.1c0-1.2,1-2.2,2.1-2.1c2.2,0,4.3,0.1,6.2,0.4c1.1,0.2,1.9,1.2,1.8,2.4C30.8,41.3,29.9,42.1,28.9,42.1z"/>
	</g>
</g>
</svg>
