<?xml version="1.0" encoding="utf-8"?>
<!-- Generator: Adobe Illustrator 23.0.3, SVG Export Plug-In . SVG Version: 6.00 Build 0)  -->
<svg version="1.1" id="Layer_1" xmlns="http://www.w3.org/2000/svg" xmlns:xlink="http://www.w3.org/1999/xlink" x="0px" y="0px"
	 viewBox="0 0 100 100" style="enable-background:new 0 0 100 100;" xml:space="preserve">
<style type="text/css">
	.st0{fill:#FFFFFF;}
</style>
<g>
	<g transform="translate(50 50) scale(0.69 0.69) rotate(0) translate(-50 -50)">
		<path class="st0" d="M38.3,2.7h-5.7c-2.4,0-3.6,3.7-3.6,10.9s1.2,10.9,3.6,10.9h5.7c3.4,0,3.4-8.2,3.4-10.9S41.7,2.7,38.3,2.7z
			 M37.6,21.2h-4.6c0-0.1-0.1-0.1-0.1-0.2c-0.3-0.8-0.9-2.7-0.9-7.5c0-5.3,0.7-7.2,1-7.7h4.6c0.3,0.6,0.9,2.5,0.9,7.7
			S37.9,20.6,37.6,21.2z M42.7,8.7h14.5c-0.1,1.1-0.2,2.2-0.2,3.2H42.9C42.9,10.9,42.8,9.8,42.7,8.7z M57.1,15.2
			c0,1,0.1,2.1,0.2,3.2H42.7c0.1-1.1,0.2-2.2,0.2-3.2H57.1z M67.5,2.7h-5.7c-3.4,0-3.4,8.2-3.4,10.9s0,10.9,3.4,10.9h5.7
			c2.4,0,3.6-3.7,3.6-10.9S69.9,2.7,67.5,2.7z M66.9,21.2h-4.6c-0.3-0.6-0.9-2.5-0.9-7.7s0.6-7.1,0.9-7.7h4.6C67,5.9,67,5.9,67,6
			c0.3,0.8,0.9,2.7,0.9,7.5C67.9,18.8,67.2,20.7,66.9,21.2z M37,29.5H26.8c-1.6,0-4.2,1.6-4.2,12.1s2.7,12.1,4.2,12.1H37
			c2.3,0,3.4-3.7,3.4-12.1S39.3,29.5,37,29.5z M36.3,50.6h-9.1c-0.1-0.1-0.2-0.2-0.3-0.4c-0.4-0.9-1.2-3.1-1.2-8.5
			c0-6.7,1.1-8.6,1.4-9h9.1c0.3,0.7,0.9,2.9,0.9,9S36.6,49.9,36.3,50.6z M58.4,43.3c0,1.1,0.1,2.1,0.1,3.2h-17
			c0.1-1,0.1-2.1,0.1-3.2C41.6,43.3,58.4,43.3,58.4,43.3z M41.5,36.8h17c-0.1,1-0.1,2.1-0.1,3.2H41.6C41.6,38.9,41.6,37.8,41.5,36.8
			z M73.2,29.5H63c-2.3,0-3.4,3.7-3.4,12.1s1,12.1,3.4,12.1h10.2c1.6,0,4.2-1.6,4.2-12.1S74.8,29.5,73.2,29.5z M72.8,50.6h-9.1
			c-0.3-0.7-0.9-2.9-0.9-9s0.6-8.2,0.9-9h9.1c0.1,0.1,0.2,0.2,0.3,0.4c0.4,0.9,1.2,3.1,1.2,8.5C74.2,48.3,73.1,50.2,72.8,50.6z
			 M74.4,60h-9.3c-1.7,0-3.4,1.5-3.4,18.7s1.7,18.7,3.4,18.7h9.3c1.8,0,2.3-2.4,2.5-3.4c0.7-3,1.1-8.1,1.1-15.3S77.7,66.3,77,63.4
			C76.8,62.4,76.2,60,74.4,60z M73.7,94.2h-7.6c-0.1-0.2-0.1-0.5-0.3-0.9c-0.4-1.9-0.9-5.9-0.9-14.6c0-10.8,0.7-14.4,1.1-15.5h7.6
			c0.4,1.1,1.2,4.6,1.2,15.5C74.9,89.6,74.1,93.1,73.7,94.2z M34.8,60h-9.3c-1.8,0-2.3,2.4-2.5,3.4c-0.7,3-1.1,8.1-1.1,15.3
			S22.3,91,23,94c0.2,0.9,0.8,3.4,2.5,3.4h9.3c1.7,0,3.4-1.5,3.4-18.7S36.5,60,34.8,60z M33.9,94.2h-7.6c-0.4-1.1-1.2-4.6-1.2-15.5
			s0.8-14.4,1.2-15.5h7.6c0.4,1.1,1.1,4.7,1.1,15.5S34.3,93,33.9,94.2z M60.5,80.4c0,1.1,0,2.2,0.1,3.2H39.4c0-1,0.1-2.1,0.1-3.2
			H60.5z M39.4,73.8h21.2c0,1-0.1,2.1-0.1,3.2H39.4C39.4,75.9,39.4,74.8,39.4,73.8z M18.3,68.9c-0.4,0.4-1.5,2.5-1.5,9.8
			c0,7.3,1.1,9.4,1.5,9.8h2.6c0.1,1.1,0.2,2.2,0.3,3.2H18c-2,0-4.2-2.3-4.2-13s2.3-13,4.2-13h3.4c-0.1,0.9-0.3,2-0.3,3.2L18.3,68.9
			L18.3,68.9z M86.3,78.7c0,10.7-2.3,13-4.2,13h-3.4c0.1-0.9,0.3-2,0.3-3.2h2.6C82,88,83,86,83,78.7c0-7.3-1.1-9.4-1.5-9.8H79
			c-0.1-1.1-0.2-2.2-0.3-3.2H82C84,65.7,86.3,68,86.3,78.7z"/>
	</g>
</g>
</svg>
